<svg xmlns="http://www.w3.org/2000/svg" width="1920" height="200"><path d="M985,122L1000,81L958,130Z" fill="#4abffc" stroke="#4abffc" stroke-width="1.51"/><path d="M1000,81L964,45L958,130Z" fill="#45bdfc" stroke="#45bdfc" stroke-width="1.51"/><path d="M964,45L909,66L958,130Z" fill="#44bcfc" stroke="#44bcfc" stroke-width="1.51"/><path d="M909,66L923,141L958,130Z" fill="#49befc" stroke="#49befc" stroke-width="1.51"/><path d="M958,130L1023,145L985,122Z" fill="#4dc0fd" stroke="#4dc0fd" stroke-width="1.51"/><path d="M1000,81L1026,49L964,45Z" fill="#41bbfc" stroke="#41bbfc" stroke-width="1.51"/><path d="M1052,56L1026,49L1000,81Z" fill="#42bbfc" stroke="#42bbfc" stroke-width="1.51"/><path d="M909,66L884,116L923,141Z" fill="#48befc" stroke="#48befc" stroke-width="1.51"/><path d="M985,122L1023,145L1000,81Z" fill="#4bbffc" stroke="#4bbffc" stroke-width="1.51"/><path d="M944,243L1023,145L958,130Z" fill="#53c3fd" stroke="#53c3fd" stroke-width="1.51"/><path d="M909,66L870,94L884,116Z" fill="#45bdfc" stroke="#45bdfc" stroke-width="1.51"/><path d="M1077,93L1052,56L1000,81Z" fill="#45bcfc" stroke="#45bcfc" stroke-width="1.51"/><path d="M1023,145L1077,93L1000,81Z" fill="#4abffc" stroke="#4abffc" stroke-width="1.51"/><path d="M964,45L887,-44L909,66Z" fill="#38b7fb" stroke="#38b7fb" stroke-width="1.51"/><path d="M909,66L829,31L870,94Z" fill="#3fbafc" stroke="#3fbafc" stroke-width="1.51"/><path d="M1000,-26L969,-28L964,45Z" fill="#34b6fb" stroke="#34b6fb" stroke-width="1.51"/><path d="M1000,-26L964,45L1026,49Z" fill="#3ab8fb" stroke="#3ab8fb" stroke-width="1.51"/><path d="M1103,12L1000,-26L1026,49Z" fill="#38b8fb" stroke="#38b8fb" stroke-width="1.51"/><path d="M1103,12L1026,49L1052,56Z" fill="#3fbafb" stroke="#3fbafb" stroke-width="1.51"/><path d="M923,141L944,243L958,130Z" fill="#53c3fd" stroke="#53c3fd" stroke-width="1.51"/><path d="M884,116L878,189L923,141Z" fill="#4ec1fd" stroke="#4ec1fd" stroke-width="1.51"/><path d="M829,182L878,189L884,116Z" fill="#50c1fd" stroke="#50c1fd" stroke-width="1.51"/><path d="M838,-4L829,31L909,66Z" fill="#38b8fb" stroke="#38b8fb" stroke-width="1.51"/><path d="M870,94L829,182L884,116Z" fill="#4bbffd" stroke="#4bbffd" stroke-width="1.51"/><path d="M1023,145L1088,159L1077,93Z" fill="#4fc1fd" stroke="#4fc1fd" stroke-width="1.51"/><path d="M1083,219L1088,159L1023,145Z" fill="#54c4fd" stroke="#54c4fd" stroke-width="1.51"/><path d="M829,31L814,81L870,94Z" fill="#40bafc" stroke="#40bafc" stroke-width="1.51"/><path d="M969,-28L887,-44L964,45Z" fill="#34b6fb" stroke="#34b6fb" stroke-width="1.51"/><path d="M1000,-26L945,-60L969,-28Z" fill="#34b6fb" stroke="#34b6fb" stroke-width="1.51"/><path d="M945,-60L887,-44L969,-28Z" fill="#33b6fb" stroke="#33b6fb" stroke-width="1.51"/><path d="M878,189L944,243L923,141Z" fill="#55c4fe" stroke="#55c4fe" stroke-width="1.51"/><path d="M829,31L768,60L814,81Z" fill="#3db9fc" stroke="#3db9fc" stroke-width="1.51"/><path d="M887,-44L838,-4L909,66Z" fill="#33b6fb" stroke="#33b6fb" stroke-width="1.51"/><path d="M789,154L829,182L870,94Z" fill="#4dc0fd" stroke="#4dc0fd" stroke-width="1.51"/><path d="M878,189L897,253L944,243Z" fill="#56c5fe" stroke="#56c5fe" stroke-width="1.51"/><path d="M1077,93L1103,12L1052,56Z" fill="#41bbfc" stroke="#41bbfc" stroke-width="1.51"/><path d="M1000,-26L1016,-100L945,-60Z" fill="#34b6fb" stroke="#34b6fb" stroke-width="1.51"/><path d="M1130,9L1103,12L1156,23Z" fill="#3bb9fb" stroke="#3bb9fb" stroke-width="1.51"/><path d="M829,182L845,207L878,189Z" fill="#54c4fe" stroke="#54c4fe" stroke-width="1.51"/><path d="M1011,251L1028,242L1023,145Z" fill="#57c6fe" stroke="#57c6fe" stroke-width="1.51"/><path d="M944,243L1011,251L1023,145Z" fill="#57c5fe" stroke="#57c5fe" stroke-width="1.51"/><path d="M944,243L949,261L1011,251Z" fill="#57c5fe" stroke="#57c5fe" stroke-width="1.51"/><path d="M897,253L949,261L944,243Z" fill="#56c5fe" stroke="#56c5fe" stroke-width="1.51"/><path d="M887,-44L864,-52L838,-4Z" fill="#32b5fb" stroke="#32b5fb" stroke-width="1.51"/><path d="M906,-75L864,-52L887,-44Z" fill="#32b6fb" stroke="#32b6fb" stroke-width="1.51"/><path d="M945,-60L906,-75L887,-44Z" fill="#33b6fb" stroke="#33b6fb" stroke-width="1.51"/><path d="M845,207L897,253L878,189Z" fill="#55c4fe" stroke="#55c4fe" stroke-width="1.51"/><path d="M1099,281L1083,219L1028,242Z" fill="#58c6fe" stroke="#58c6fe" stroke-width="1.51"/><path d="M1028,242L1083,219L1023,145Z" fill="#58c6fe" stroke="#58c6fe" stroke-width="1.51"/><path d="M1088,159L1149,114L1077,93Z" fill="#4dc0fd" stroke="#4dc0fd" stroke-width="1.51"/><path d="M1103,12L1055,-64L1000,-26Z" fill="#36b7fb" stroke="#36b7fb" stroke-width="1.51"/><path d="M945,-60L1016,-100L906,-75Z" fill="#34b6fb" stroke="#34b6fb" stroke-width="1.51"/><path d="M783,226L836,260L845,207Z" fill="#55c4fe" stroke="#55c4fe" stroke-width="1.51"/><path d="M814,81L789,154L870,94Z" fill="#47bdfc" stroke="#47bdfc" stroke-width="1.51"/><path d="M768,60L789,154L814,81Z" fill="#44bcfc" stroke="#44bcfc" stroke-width="1.51"/><path d="M1116,209L1133,158L1088,159Z" fill="#56c4fe" stroke="#56c4fe" stroke-width="1.51"/><path d="M1156,23L1103,12L1077,93Z" fill="#40bafc" stroke="#40bafc" stroke-width="1.51"/><path d="M1103,12L1155,-63L1055,-64Z" fill="#37b7fb" stroke="#37b7fb" stroke-width="1.51"/><path d="M1133,158L1149,114L1088,159Z" fill="#51c2fd" stroke="#51c2fd" stroke-width="1.51"/><path d="M755,-16L768,60L829,31Z" fill="#36b7fb" stroke="#36b7fb" stroke-width="1.51"/><path d="M755,-16L829,31L838,-4Z" fill="#31b5fb" stroke="#31b5fb" stroke-width="1.51"/><path d="M1083,219L1116,209L1088,159Z" fill="#58c6fe" stroke="#58c6fe" stroke-width="1.51"/><path d="M1212,168L1174,103L1149,114Z" fill="#50c1fd" stroke="#50c1fd" stroke-width="1.51"/><path d="M1141,254L1116,209L1083,219Z" fill="#59c6fe" stroke="#59c6fe" stroke-width="1.51"/><path d="M1055,-64L1016,-100L1000,-26Z" fill="#36b7fb" stroke="#36b7fb" stroke-width="1.51"/><path d="M1130,9L1155,-63L1103,12Z" fill="#38b8fb" stroke="#38b8fb" stroke-width="1.51"/><path d="M1055,-64L1179,-86L1016,-100Z" fill="#37b7fb" stroke="#37b7fb" stroke-width="1.51"/><path d="M1149,114L1156,23L1077,93Z" fill="#46bdfc" stroke="#46bdfc" stroke-width="1.51"/><path d="M845,207L836,260L897,253Z" fill="#55c4fe" stroke="#55c4fe" stroke-width="1.51"/><path d="M897,253L836,260L949,261Z" fill="#56c5fe" stroke="#56c5fe" stroke-width="1.51"/><path d="M783,226L845,207L829,182Z" fill="#55c4fe" stroke="#55c4fe" stroke-width="1.51"/><path d="M1149,114L1174,103L1156,23Z" fill="#47befc" stroke="#47befc" stroke-width="1.51"/><path d="M1212,168L1149,114L1133,158Z" fill="#52c3fd" stroke="#52c3fd" stroke-width="1.51"/><path d="M789,154L783,226L829,182Z" fill="#52c3fe" stroke="#52c3fe" stroke-width="1.51"/><path d="M739,233L783,226L789,154Z" fill="#54c4fd" stroke="#54c4fd" stroke-width="1.51"/><path d="M864,-52L775,-42L838,-4Z" fill="#30b5fb" stroke="#30b5fb" stroke-width="1.51"/><path d="M774,-60L775,-42L864,-52Z" fill="#30b5fb" stroke="#30b5fb" stroke-width="1.51"/><path d="M775,-42L755,-16L838,-4Z" fill="#30b5fb" stroke="#30b5fb" stroke-width="1.51"/><path d="M768,60L710,115L789,154Z" fill="#46bdfc" stroke="#46bdfc" stroke-width="1.51"/><path d="M1116,209L1212,168L1133,158Z" fill="#56c5fe" stroke="#56c5fe" stroke-width="1.51"/><path d="M1011,251L1099,281L1028,242Z" fill="#58c6fe" stroke="#58c6fe" stroke-width="1.51"/><path d="M949,261L1099,281L1011,251Z" fill="#57c6fe" stroke="#57c6fe" stroke-width="1.51"/><path d="M653,291L1099,281L949,261Z" fill="#56c5fe" stroke="#56c5fe" stroke-width="1.51"/><path d="M755,-16L727,47L768,60Z" fill="#36b7fb" stroke="#36b7fb" stroke-width="1.51"/><path d="M669,-36L668,69L727,47Z" fill="#34b6fb" stroke="#34b6fb" stroke-width="1.51"/><path d="M775,-42L774,-60L755,-16Z" fill="#2fb5fa" stroke="#2fb5fa" stroke-width="1.51"/><path d="M906,-75L774,-60L864,-52Z" fill="#31b5fb" stroke="#31b5fb" stroke-width="1.51"/><path d="M719,-82L774,-60L906,-75Z" fill="#30b5fb" stroke="#30b5fb" stroke-width="1.51"/><path d="M783,226L777,246L836,260Z" fill="#54c4fe" stroke="#54c4fe" stroke-width="1.51"/><path d="M739,233L777,246L783,226Z" fill="#54c4fd" stroke="#54c4fd" stroke-width="1.51"/><path d="M1099,281L1141,254L1083,219Z" fill="#59c6fe" stroke="#59c6fe" stroke-width="1.51"/><path d="M1177,-32L1155,-63L1130,9Z" fill="#38b8fb" stroke="#38b8fb" stroke-width="1.51"/><path d="M1177,-32L1130,9L1156,23Z" fill="#38b8fb" stroke="#38b8fb" stroke-width="1.51"/><path d="M1214,19L1177,-32L1156,23Z" fill="#3ab8fb" stroke="#3ab8fb" stroke-width="1.51"/><path d="M727,47L710,115L768,60Z" fill="#3fbafb" stroke="#3fbafb" stroke-width="1.51"/><path d="M1231,65L1214,19L1156,23Z" fill="#40bbfc" stroke="#40bbfc" stroke-width="1.51"/><path d="M1177,-32L1179,-86L1155,-63Z" fill="#38b8fb" stroke="#38b8fb" stroke-width="1.51"/><path d="M1231,65L1156,23L1174,103Z" fill="#45bcfc" stroke="#45bcfc" stroke-width="1.51"/><path d="M1174,254L1212,168L1116,209Z" fill="#5ac7fe" stroke="#5ac7fe" stroke-width="1.51"/><path d="M694,199L739,233L789,154Z" fill="#53c3fd" stroke="#53c3fd" stroke-width="1.51"/><path d="M710,115L701,145L789,154Z" fill="#4abffc" stroke="#4abffc" stroke-width="1.51"/><path d="M668,136L701,145L710,115Z" fill="#48befc" stroke="#48befc" stroke-width="1.51"/><path d="M1141,254L1174,254L1116,209Z" fill="#5ac7fe" stroke="#5ac7fe" stroke-width="1.51"/><path d="M1099,281L1174,254L1141,254Z" fill="#59c7fe" stroke="#59c7fe" stroke-width="1.51"/><path d="M1254,115L1231,65L1174,103Z" fill="#4bbffd" stroke="#4bbffd" stroke-width="1.51"/><path d="M739,233L745,268L777,246Z" fill="#54c4fd" stroke="#54c4fd" stroke-width="1.51"/><path d="M777,246L745,268L836,260Z" fill="#54c4fe" stroke="#54c4fe" stroke-width="1.51"/><path d="M836,260L653,291L949,261Z" fill="#55c4fe" stroke="#55c4fe" stroke-width="1.51"/><path d="M653,291L745,268L739,233Z" fill="#53c3fd" stroke="#53c3fd" stroke-width="1.51"/><path d="M1268,-69L1179,-86L1177,-32Z" fill="#3ab8fb" stroke="#3ab8fb" stroke-width="1.51"/><path d="M1155,-63L1179,-86L1055,-64Z" fill="#38b8fb" stroke="#38b8fb" stroke-width="1.51"/><path d="M1271,-38L1177,-32L1214,19Z" fill="#3ab8fb" stroke="#3ab8fb" stroke-width="1.51"/><path d="M701,145L694,199L789,154Z" fill="#4ec1fd" stroke="#4ec1fd" stroke-width="1.51"/><path d="M1223,273L1211,241L1174,254Z" fill="#5ac7fe" stroke="#5ac7fe" stroke-width="1.51"/><path d="M1174,254L1211,241L1212,168Z" fill="#5ac7fe" stroke="#5ac7fe" stroke-width="1.51"/><path d="M1212,168L1254,115L1174,103Z" fill="#50c2fd" stroke="#50c2fd" stroke-width="1.51"/><path d="M727,47L668,69L710,115Z" fill="#3fbafb" stroke="#3fbafb" stroke-width="1.51"/><path d="M701,145L668,136L694,199Z" fill="#4dc0fd" stroke="#4dc0fd" stroke-width="1.51"/><path d="M669,-36L727,47L755,-16Z" fill="#2eb4fa" stroke="#2eb4fa" stroke-width="1.51"/><path d="M1291,-32L1271,-38L1214,19Z" fill="#3ab9fb" stroke="#3ab9fb" stroke-width="1.51"/><path d="M1266,140L1254,115L1212,168Z" fill="#53c3fd" stroke="#53c3fd" stroke-width="1.51"/><path d="M657,108L668,136L710,115Z" fill="#46bdfc" stroke="#46bdfc" stroke-width="1.51"/><path d="M774,-60L719,-82L755,-16Z" fill="#2fb5fa" stroke="#2fb5fa" stroke-width="1.51"/><path d="M1016,-100L719,-82L906,-75Z" fill="#32b6fb" stroke="#32b6fb" stroke-width="1.51"/><path d="M668,69L657,108L710,115Z" fill="#42bbfc" stroke="#42bbfc" stroke-width="1.51"/><path d="M1211,241L1231,230L1212,168Z" fill="#5ac7fe" stroke="#5ac7fe" stroke-width="1.51"/><path d="M1231,230L1266,140L1212,168Z" fill="#58c6fe" stroke="#58c6fe" stroke-width="1.51"/><path d="M1305,62L1214,19L1231,65Z" fill="#44bcfc" stroke="#44bcfc" stroke-width="1.51"/><path d="M719,-82L669,-36L755,-16Z" fill="#2eb4fa" stroke="#2eb4fa" stroke-width="1.51"/><path d="M579,75L591,122L657,108Z" fill="#41bbfc" stroke="#41bbfc" stroke-width="1.51"/><path d="M562,-87L698,-82L719,-82Z" fill="#2cb4fa" stroke="#2cb4fa" stroke-width="1.51"/><path d="M698,-82L669,-36L719,-82Z" fill="#2db4fa" stroke="#2db4fa" stroke-width="1.51"/><path d="M1211,241L1223,273L1231,230Z" fill="#5ac7fe" stroke="#5ac7fe" stroke-width="1.51"/><path d="M1362,136L1318,85L1266,140Z" fill="#51c2fd" stroke="#51c2fd" stroke-width="1.51"/><path d="M1099,281L1223,273L1174,254Z" fill="#5ac7fe" stroke="#5ac7fe" stroke-width="1.51"/><path d="M1305,62L1231,65L1254,115Z" fill="#49bffc" stroke="#49bffc" stroke-width="1.51"/><path d="M657,108L631,162L668,136Z" fill="#48befc" stroke="#48befc" stroke-width="1.51"/><path d="M668,136L631,162L694,199Z" fill="#4dc0fd" stroke="#4dc0fd" stroke-width="1.51"/><path d="M694,199L653,291L739,233Z" fill="#53c3fd" stroke="#53c3fd" stroke-width="1.51"/><path d="M591,122L631,162L657,108Z" fill="#46bdfc" stroke="#46bdfc" stroke-width="1.51"/><path d="M1318,85L1305,62L1254,115Z" fill="#4bbffd" stroke="#4bbffd" stroke-width="1.51"/><path d="M1318,85L1254,115L1266,140Z" fill="#4fc1fd" stroke="#4fc1fd" stroke-width="1.51"/><path d="M1271,-38L1268,-69L1177,-32Z" fill="#3ab8fb" stroke="#3ab8fb" stroke-width="1.51"/><path d="M1291,-32L1268,-69L1271,-38Z" fill="#3bb9fb" stroke="#3bb9fb" stroke-width="1.51"/><path d="M1305,62L1291,-32L1214,19Z" fill="#3ebafc" stroke="#3ebafc" stroke-width="1.51"/><path d="M1373,37L1339,-42L1291,-32Z" fill="#3db9fb" stroke="#3db9fb" stroke-width="1.51"/><path d="M1293,241L1266,140L1231,230Z" fill="#5bc8fe" stroke="#5bc8fe" stroke-width="1.51"/><path d="M669,-36L610,15L668,69Z" fill="#30b5fa" stroke="#30b5fa" stroke-width="1.51"/><path d="M608,3L610,15L669,-36Z" fill="#2cb4fa" stroke="#2cb4fa" stroke-width="1.51"/><path d="M579,75L657,108L668,69Z" fill="#3fbafc" stroke="#3fbafc" stroke-width="1.51"/><path d="M591,-55L608,3L669,-36Z" fill="#2bb4fa" stroke="#2bb4fa" stroke-width="1.51"/><path d="M1223,273L1293,241L1231,230Z" fill="#5bc7fe" stroke="#5bc7fe" stroke-width="1.51"/><path d="M599,265L653,291L694,199Z" fill="#52c3fd" stroke="#52c3fd" stroke-width="1.51"/><path d="M745,268L653,291L836,260Z" fill="#53c3fd" stroke="#53c3fd" stroke-width="1.51"/><path d="M631,162L587,211L694,199Z" fill="#51c2fd" stroke="#51c2fd" stroke-width="1.51"/><path d="M579,75L668,69L610,15Z" fill="#38b8fb" stroke="#38b8fb" stroke-width="1.51"/><path d="M1293,241L1325,182L1266,140Z" fill="#5ac7fe" stroke="#5ac7fe" stroke-width="1.51"/><path d="M569,35L579,75L610,15Z" fill="#35b6fb" stroke="#35b6fb" stroke-width="1.51"/><path d="M577,177L631,162L591,122Z" fill="#4abffd" stroke="#4abffd" stroke-width="1.51"/><path d="M577,177L587,211L631,162Z" fill="#4fc1fd" stroke="#4fc1fd" stroke-width="1.51"/><path d="M564,187L577,177L518,167Z" fill="#4dc0fd" stroke="#4dc0fd" stroke-width="1.51"/><path d="M518,167L577,177L591,122Z" fill="#4abffd" stroke="#4abffd" stroke-width="1.51"/><path d="M608,3L569,35L610,15Z" fill="#2fb5fb" stroke="#2fb5fb" stroke-width="1.51"/><path d="M575,-32L569,35L608,3Z" fill="#2bb3fa" stroke="#2bb3fa" stroke-width="1.51"/><path d="M698,-82L591,-55L669,-36Z" fill="#2cb4fa" stroke="#2cb4fa" stroke-width="1.51"/><path d="M1291,-32L1329,-68L1268,-69Z" fill="#3bb9fb" stroke="#3bb9fb" stroke-width="1.51"/><path d="M1373,37L1291,-32L1305,62Z" fill="#40bbfc" stroke="#40bbfc" stroke-width="1.51"/><path d="M1373,37L1305,62L1318,85Z" fill="#47befc" stroke="#47befc" stroke-width="1.51"/><path d="M1339,-42L1329,-68L1291,-32Z" fill="#3cb9fb" stroke="#3cb9fb" stroke-width="1.51"/><path d="M1268,-69L1403,-96L1179,-86Z" fill="#3bb9fb" stroke="#3bb9fb" stroke-width="1.51"/><path d="M587,211L599,265L694,199Z" fill="#52c3fd" stroke="#52c3fd" stroke-width="1.51"/><path d="M549,265L599,265L587,211Z" fill="#51c2fd" stroke="#51c2fd" stroke-width="1.51"/><path d="M1325,182L1362,136L1266,140Z" fill="#55c4fe" stroke="#55c4fe" stroke-width="1.51"/><path d="M1376,128L1362,136L1410,143Z" fill="#54c3fd" stroke="#54c3fd" stroke-width="1.51"/><path d="M1293,241L1363,213L1325,182Z" fill="#5cc8fe" stroke="#5cc8fe" stroke-width="1.51"/><path d="M1223,273L1319,277L1293,241Z" fill="#5bc8fe" stroke="#5bc8fe" stroke-width="1.51"/><path d="M1348,287L1319,277L1223,273Z" fill="#5bc8fe" stroke="#5bc8fe" stroke-width="1.51"/><path d="M1348,287L1223,273L1099,281Z" fill="#5ac7fe" stroke="#5ac7fe" stroke-width="1.51"/><path d="M591,-55L575,-32L608,3Z" fill="#2ab3fa" stroke="#2ab3fa" stroke-width="1.51"/><path d="M577,177L564,187L587,211Z" fill="#50c2fd" stroke="#50c2fd" stroke-width="1.51"/><path d="M518,167L591,122L504,99Z" fill="#45bcfc" stroke="#45bcfc" stroke-width="1.51"/><path d="M1376,128L1373,37L1318,85Z" fill="#4bbffd" stroke="#4bbffd" stroke-width="1.51"/><path d="M1339,-42L1391,-80L1329,-68Z" fill="#3db9fb" stroke="#3db9fb" stroke-width="1.51"/><path d="M1362,136L1376,128L1318,85Z" fill="#51c2fd" stroke="#51c2fd" stroke-width="1.51"/><path d="M1363,213L1362,136L1325,182Z" fill="#59c6fe" stroke="#59c6fe" stroke-width="1.51"/><path d="M1319,277L1363,213L1293,241Z" fill="#5cc8fe" stroke="#5cc8fe" stroke-width="1.51"/><path d="M1319,277L1348,287L1363,213Z" fill="#5cc8fe" stroke="#5cc8fe" stroke-width="1.51"/><path d="M653,291L1348,287L1099,281Z" fill="#58c6fe" stroke="#58c6fe" stroke-width="1.51"/><path d="M591,-55L562,-87L575,-32Z" fill="#2ab3fa" stroke="#2ab3fa" stroke-width="1.51"/><path d="M495,15L504,99L569,35Z" fill="#35b6fb" stroke="#35b6fb" stroke-width="1.51"/><path d="M501,251L549,265L564,187Z" fill="#50c2fd" stroke="#50c2fd" stroke-width="1.51"/><path d="M698,-82L562,-87L591,-55Z" fill="#2bb4fa" stroke="#2bb4fa" stroke-width="1.51"/><path d="M1016,-100L562,-87L719,-82Z" fill="#2fb5fa" stroke="#2fb5fa" stroke-width="1.51"/><path d="M591,122L579,75L504,99Z" fill="#40bbfc" stroke="#40bbfc" stroke-width="1.51"/><path d="M564,187L549,265L587,211Z" fill="#51c2fd" stroke="#51c2fd" stroke-width="1.51"/><path d="M599,265L549,265L653,291Z" fill="#51c2fd" stroke="#51c2fd" stroke-width="1.51"/><path d="M504,99L579,75L569,35Z" fill="#3ab8fb" stroke="#3ab8fb" stroke-width="1.51"/><path d="M1444,74L1405,17L1373,37Z" fill="#46bdfc" stroke="#46bdfc" stroke-width="1.51"/><path d="M1373,37L1405,17L1339,-42Z" fill="#3ebafb" stroke="#3ebafb" stroke-width="1.51"/><path d="M1444,74L1373,37L1376,128Z" fill="#4bc0fc" stroke="#4bc0fc" stroke-width="1.51"/><path d="M1410,143L1362,136L1363,213Z" fill="#58c6fe" stroke="#58c6fe" stroke-width="1.51"/><path d="M1422,214L1410,143L1363,213Z" fill="#5bc8fe" stroke="#5bc8fe" stroke-width="1.51"/><path d="M495,15L569,35L575,-32Z" fill="#2bb3fa" stroke="#2bb3fa" stroke-width="1.51"/><path d="M1405,17L1391,-80L1339,-42Z" fill="#3db9fb" stroke="#3db9fb" stroke-width="1.51"/><path d="M1329,-68L1403,-96L1268,-69Z" fill="#3db9fb" stroke="#3db9fb" stroke-width="1.51"/><path d="M1179,-86L1403,-96L1016,-100Z" fill="#39b8fb" stroke="#39b8fb" stroke-width="1.51"/><path d="M480,-39L495,15L575,-32Z" fill="#28b3fa" stroke="#28b3fa" stroke-width="1.51"/><path d="M1419,286L1422,214L1363,213Z" fill="#5dc9fe" stroke="#5dc9fe" stroke-width="1.51"/><path d="M1410,143L1444,74L1376,128Z" fill="#51c2fd" stroke="#51c2fd" stroke-width="1.51"/><path d="M1449,-43L1403,-96L1391,-80Z" fill="#3ebafb" stroke="#3ebafb" stroke-width="1.51"/><path d="M1391,-80L1403,-96L1329,-68Z" fill="#3db9fb" stroke="#3db9fb" stroke-width="1.51"/><path d="M1449,-43L1391,-80L1405,17Z" fill="#3ebafb" stroke="#3ebafb" stroke-width="1.51"/><path d="M1500,114L1444,74L1410,143Z" fill="#51c2fd" stroke="#51c2fd" stroke-width="1.51"/><path d="M479,214L444,138L470,215Z" fill="#4dc0fd" stroke="#4dc0fd" stroke-width="1.51"/><path d="M479,214L501,251L518,167Z" fill="#50c2fd" stroke="#50c2fd" stroke-width="1.51"/><path d="M518,167L501,251L564,187Z" fill="#50c2fd" stroke="#50c2fd" stroke-width="1.51"/><path d="M479,214L518,167L444,138Z" fill="#4bbffd" stroke="#4bbffd" stroke-width="1.51"/><path d="M444,138L518,167L504,99Z" fill="#45bdfc" stroke="#45bdfc" stroke-width="1.51"/><path d="M562,-87L480,-39L575,-32Z" fill="#29b3fa" stroke="#29b3fa" stroke-width="1.51"/><path d="M1500,114L1471,35L1444,74Z" fill="#4cc0fd" stroke="#4cc0fd" stroke-width="1.51"/><path d="M1348,287L1419,286L1363,213Z" fill="#5dc8fe" stroke="#5dc8fe" stroke-width="1.51"/><path d="M1481,12L1449,-43L1405,17Z" fill="#3fbafc" stroke="#3fbafc" stroke-width="1.51"/><path d="M479,214L470,215L501,251Z" fill="#4fc1fd" stroke="#4fc1fd" stroke-width="1.51"/><path d="M454,71L504,99L495,15Z" fill="#37b7fb" stroke="#37b7fb" stroke-width="1.51"/><path d="M451,59L454,71L495,15Z" fill="#33b6fa" stroke="#33b6fa" stroke-width="1.51"/><path d="M562,-87L477,-64L480,-39Z" fill="#28b3fa" stroke="#28b3fa" stroke-width="1.51"/><path d="M426,-6L451,59L495,15Z" fill="#2db4fa" stroke="#2db4fa" stroke-width="1.51"/><path d="M426,-6L495,15L480,-39Z" fill="#26b2fa" stroke="#26b2fa" stroke-width="1.51"/><path d="M454,71L444,138L504,99Z" fill="#3ebafc" stroke="#3ebafc" stroke-width="1.51"/><path d="M1444,74L1471,35L1405,17Z" fill="#46bdfc" stroke="#46bdfc" stroke-width="1.51"/><path d="M1506,183L1410,143L1422,214Z" fill="#5bc7fe" stroke="#5bc7fe" stroke-width="1.51"/><path d="M405,58L444,138L454,71Z" fill="#3cb9fb" stroke="#3cb9fb" stroke-width="1.51"/><path d="M1532,13L1481,12L1471,35Z" fill="#43bcfc" stroke="#43bcfc" stroke-width="1.51"/><path d="M1471,35L1481,12L1405,17Z" fill="#43bcfc" stroke="#43bcfc" stroke-width="1.51"/><path d="M1419,286L1484,220L1422,214Z" fill="#5ec9ff" stroke="#5ec9ff" stroke-width="1.51"/><path d="M1506,183L1500,114L1410,143Z" fill="#57c5fd" stroke="#57c5fd" stroke-width="1.51"/><path d="M451,59L405,58L454,71Z" fill="#36b7fb" stroke="#36b7fb" stroke-width="1.51"/><path d="M418,-63L426,-6L480,-39Z" fill="#26b2fa" stroke="#26b2fa" stroke-width="1.51"/><path d="M1484,220L1506,183L1422,214Z" fill="#5ec9ff" stroke="#5ec9ff" stroke-width="1.51"/><path d="M1484,220L1507,194L1506,183Z" fill="#5ec9ff" stroke="#5ec9ff" stroke-width="1.51"/><path d="M1532,13L1471,35L1564,63Z" fill="#47bdfc" stroke="#47bdfc" stroke-width="1.51"/><path d="M426,-6L405,58L451,59Z" fill="#30b5fa" stroke="#30b5fa" stroke-width="1.51"/><path d="M411,256L436,291L470,215Z" fill="#4fc1fd" stroke="#4fc1fd" stroke-width="1.51"/><path d="M501,251L436,291L549,265Z" fill="#50c2fd" stroke="#50c2fd" stroke-width="1.51"/><path d="M549,265L436,291L653,291Z" fill="#50c2fd" stroke="#50c2fd" stroke-width="1.51"/><path d="M470,215L436,291L501,251Z" fill="#4fc1fd" stroke="#4fc1fd" stroke-width="1.51"/><path d="M397,198L470,215L444,138Z" fill="#4cc0fd" stroke="#4cc0fd" stroke-width="1.51"/><path d="M394,-101L418,-63L477,-64Z" fill="#25b2fa" stroke="#25b2fa" stroke-width="1.51"/><path d="M477,-64L418,-63L480,-39Z" fill="#26b2fa" stroke="#26b2fa" stroke-width="1.51"/><path d="M426,-6L394,-6L405,58Z" fill="#29b3fa" stroke="#29b3fa" stroke-width="1.51"/><path d="M1481,12L1500,-83L1449,-43Z" fill="#3fbafc" stroke="#3fbafc" stroke-width="1.51"/><path d="M1449,-43L1500,-83L1403,-96Z" fill="#3fbafc" stroke="#3fbafc" stroke-width="1.51"/><path d="M1544,-53L1500,-83L1481,12Z" fill="#40bafc" stroke="#40bafc" stroke-width="1.51"/><path d="M1527,128L1500,114L1506,183Z" fill="#57c5fe" stroke="#57c5fe" stroke-width="1.51"/><path d="M1560,178L1527,128L1506,183Z" fill="#5ac7fe" stroke="#5ac7fe" stroke-width="1.51"/><path d="M1507,194L1560,178L1506,183Z" fill="#5dc9ff" stroke="#5dc9ff" stroke-width="1.51"/><path d="M1484,220L1529,260L1507,194Z" fill="#5fc9ff" stroke="#5fc9ff" stroke-width="1.51"/><path d="M1419,286L1502,270L1484,220Z" fill="#5ec9ff" stroke="#5ec9ff" stroke-width="1.51"/><path d="M358,153L397,198L444,138Z" fill="#48befc" stroke="#48befc" stroke-width="1.51"/><path d="M397,198L411,256L470,215Z" fill="#4ec1fd" stroke="#4ec1fd" stroke-width="1.51"/><path d="M405,58L367,93L444,138Z" fill="#3cb9fb" stroke="#3cb9fb" stroke-width="1.51"/><path d="M418,-63L394,-6L426,-6Z" fill="#25b2fa" stroke="#25b2fa" stroke-width="1.51"/><path d="M1564,63L1471,35L1500,114Z" fill="#4cc0fd" stroke="#4cc0fd" stroke-width="1.51"/><path d="M1502,270L1529,260L1484,220Z" fill="#5fc9ff" stroke="#5fc9ff" stroke-width="1.51"/><path d="M1599,-40L1544,-53L1532,13Z" fill="#41bbfc" stroke="#41bbfc" stroke-width="1.51"/><path d="M397,198L344,217L411,256Z" fill="#4ec1fd" stroke="#4ec1fd" stroke-width="1.51"/><path d="M344,89L367,93L337,56Z" fill="#37b7fb" stroke="#37b7fb" stroke-width="1.51"/><path d="M562,-87L394,-101L477,-64Z" fill="#27b2fa" stroke="#27b2fa" stroke-width="1.51"/><path d="M418,-63L341,-10L394,-6Z" fill="#24b2fa" stroke="#24b2fa" stroke-width="1.51"/><path d="M337,56L367,93L405,58Z" fill="#35b7fb" stroke="#35b7fb" stroke-width="1.51"/><path d="M1016,-100L394,-101L562,-87Z" fill="#2cb4fa" stroke="#2cb4fa" stroke-width="1.51"/><path d="M1532,13L1544,-53L1481,12Z" fill="#40bbfc" stroke="#40bbfc" stroke-width="1.51"/><path d="M1564,63L1500,114L1527,128Z" fill="#51c2fd" stroke="#51c2fd" stroke-width="1.51"/><path d="M1615,97L1564,63L1527,128Z" fill="#51c2fd" stroke="#51c2fd" stroke-width="1.51"/><path d="M1529,260L1560,178L1507,194Z" fill="#5fcaff" stroke="#5fcaff" stroke-width="1.51"/><path d="M367,93L358,153L444,138Z" fill="#41bbfc" stroke="#41bbfc" stroke-width="1.51"/><path d="M344,89L358,153L367,93Z" fill="#3ebafb" stroke="#3ebafb" stroke-width="1.51"/><path d="M337,56L405,58L394,-6Z" fill="#2eb4fa" stroke="#2eb4fa" stroke-width="1.51"/><path d="M341,-10L337,56L394,-6Z" fill="#27b2fa" stroke="#27b2fa" stroke-width="1.51"/><path d="M394,-101L341,-10L418,-63Z" fill="#24b2fa" stroke="#24b2fa" stroke-width="1.51"/><path d="M358,153L344,217L397,198Z" fill="#4cc0fd" stroke="#4cc0fd" stroke-width="1.51"/><path d="M411,256L346,291L436,291Z" fill="#4ec1fd" stroke="#4ec1fd" stroke-width="1.51"/><path d="M298,179L344,217L358,153Z" fill="#4abffd" stroke="#4abffd" stroke-width="1.51"/><path d="M298,179L358,153L344,89Z" fill="#43bcfc" stroke="#43bcfc" stroke-width="1.51"/><path d="M1564,63L1590,48L1532,13Z" fill="#48befc" stroke="#48befc" stroke-width="1.51"/><path d="M1615,97L1590,48L1564,63Z" fill="#4dc0fd" stroke="#4dc0fd" stroke-width="1.51"/><path d="M1620,146L1615,97L1527,128Z" fill="#55c4fe" stroke="#55c4fe" stroke-width="1.51"/><path d="M1529,260L1589,239L1560,178Z" fill="#5fcaff" stroke="#5fcaff" stroke-width="1.51"/><path d="M1576,286L1589,239L1529,260Z" fill="#5fcaff" stroke="#5fcaff" stroke-width="1.51"/><path d="M1502,270L1576,286L1529,260Z" fill="#5fcaff" stroke="#5fcaff" stroke-width="1.51"/><path d="M1419,286L1576,286L1502,270Z" fill="#5ec9ff" stroke="#5ec9ff" stroke-width="1.51"/><path d="M1675,290L1576,286L1419,286Z" fill="#5fcaff" stroke="#5fcaff" stroke-width="1.51"/><path d="M1675,290L1419,286L1804,297Z" fill="#60caff" stroke="#60caff" stroke-width="1.51"/><path d="M261,281L346,291L344,217Z" fill="#4dc0fd" stroke="#4dc0fd" stroke-width="1.51"/><path d="M344,217L346,291L411,256Z" fill="#4dc1fd" stroke="#4dc1fd" stroke-width="1.51"/><path d="M1544,-53L1607,-98L1500,-83Z" fill="#41bbfc" stroke="#41bbfc" stroke-width="1.51"/><path d="M1590,48L1599,-40L1532,13Z" fill="#43bcfc" stroke="#43bcfc" stroke-width="1.51"/><path d="M1622,-59L1599,-40L1647,-24Z" fill="#42bbfc" stroke="#42bbfc" stroke-width="1.51"/><path d="M1620,146L1527,128L1560,178Z" fill="#59c6fe" stroke="#59c6fe" stroke-width="1.51"/><path d="M1665,166L1620,146L1656,230Z" fill="#5ec9fe" stroke="#5ec9fe" stroke-width="1.51"/><path d="M1589,239L1620,146L1560,178Z" fill="#5ec9ff" stroke="#5ec9ff" stroke-width="1.51"/><path d="M273,170L298,179L344,89Z" fill="#44bcfc" stroke="#44bcfc" stroke-width="1.51"/><path d="M273,170L344,89L241,115Z" fill="#3fbafc" stroke="#3fbafc" stroke-width="1.51"/><path d="M1599,-40L1607,-98L1544,-53Z" fill="#41bbfc" stroke="#41bbfc" stroke-width="1.51"/><path d="M1500,-83L1607,-98L1403,-96Z" fill="#40bafc" stroke="#40bafc" stroke-width="1.51"/><path d="M1403,-96L1607,-98L1016,-100Z" fill="#3db9fb" stroke="#3db9fb" stroke-width="1.51"/><path d="M1622,-59L1607,-98L1599,-40Z" fill="#42bbfc" stroke="#42bbfc" stroke-width="1.51"/><path d="M1599,-40L1590,48L1647,-24Z" fill="#42bbfc" stroke="#42bbfc" stroke-width="1.51"/><path d="M341,-10L286,3L337,56Z" fill="#27b2fa" stroke="#27b2fa" stroke-width="1.51"/><path d="M394,-101L310,-88L341,-10Z" fill="#22b1fa" stroke="#22b1fa" stroke-width="1.51"/><path d="M1647,-24L1590,48L1676,58Z" fill="#47befc" stroke="#47befc" stroke-width="1.51"/><path d="M310,-88L286,3L341,-10Z" fill="#21b1fa" stroke="#21b1fa" stroke-width="1.51"/><path d="M298,179L261,281L344,217Z" fill="#4dc0fd" stroke="#4dc0fd" stroke-width="1.51"/><path d="M241,115L344,89L235,65Z" fill="#38b7fb" stroke="#38b7fb" stroke-width="1.51"/><path d="M1622,-59L1683,-73L1607,-98Z" fill="#42bcfc" stroke="#42bcfc" stroke-width="1.51"/><path d="M1676,58L1590,48L1615,97Z" fill="#4dc0fd" stroke="#4dc0fd" stroke-width="1.51"/><path d="M286,3L260,25L337,56Z" fill="#2ab3fa" stroke="#2ab3fa" stroke-width="1.51"/><path d="M236,-41L260,25L286,3Z" fill="#1fb1fa" stroke="#1fb1fa" stroke-width="1.51"/><path d="M1620,146L1676,126L1615,97Z" fill="#56c5fe" stroke="#56c5fe" stroke-width="1.51"/><path d="M1656,230L1620,146L1589,239Z" fill="#60caff" stroke="#60caff" stroke-width="1.51"/><path d="M1675,290L1656,230L1589,239Z" fill="#60cbff" stroke="#60cbff" stroke-width="1.51"/><path d="M1676,126L1676,58L1615,97Z" fill="#52c3fd" stroke="#52c3fd" stroke-width="1.51"/><path d="M1665,166L1676,126L1620,146Z" fill="#5ac7fe" stroke="#5ac7fe" stroke-width="1.51"/><path d="M1682,131L1676,126L1665,166Z" fill="#59c6fe" stroke="#59c6fe" stroke-width="1.51"/><path d="M273,170L249,190L298,179Z" fill="#49befc" stroke="#49befc" stroke-width="1.51"/><path d="M241,115L249,190L273,170Z" fill="#45bdfc" stroke="#45bdfc" stroke-width="1.51"/><path d="M235,65L344,89L337,56Z" fill="#34b6fb" stroke="#34b6fb" stroke-width="1.51"/><path d="M310,-88L261,-76L286,3Z" fill="#20b1fa" stroke="#20b1fa" stroke-width="1.51"/><path d="M235,65L337,56L260,25Z" fill="#2eb4fb" stroke="#2eb4fb" stroke-width="1.51"/><path d="M1676,126L1706,93L1676,58Z" fill="#52c3fd" stroke="#52c3fd" stroke-width="1.51"/><path d="M1770,152L1682,131L1665,166Z" fill="#5bc7fe" stroke="#5bc7fe" stroke-width="1.51"/><path d="M249,190L261,281L298,179Z" fill="#4cc0fd" stroke="#4cc0fd" stroke-width="1.51"/><path d="M179,71L235,65L150,3Z" fill="#2bb4fa" stroke="#2bb4fa" stroke-width="1.51"/><path d="M208,240L229,251L249,190Z" fill="#4bc0fd" stroke="#4bc0fd" stroke-width="1.51"/><path d="M261,-76L236,-41L286,3Z" fill="#1fb1fa" stroke="#1fb1fa" stroke-width="1.51"/><path d="M1656,230L1702,223L1665,166Z" fill="#61cbff" stroke="#61cbff" stroke-width="1.51"/><path d="M1675,290L1680,255L1656,230Z" fill="#61cbff" stroke="#61cbff" stroke-width="1.51"/><path d="M1647,-24L1683,-73L1622,-59Z" fill="#43bcfc" stroke="#43bcfc" stroke-width="1.51"/><path d="M1711,5L1683,-73L1647,-24Z" fill="#43bcfc" stroke="#43bcfc" stroke-width="1.51"/><path d="M1711,5L1647,-24L1676,58Z" fill="#45bdfc" stroke="#45bdfc" stroke-width="1.51"/><path d="M1576,286L1675,290L1589,239Z" fill="#60caff" stroke="#60caff" stroke-width="1.51"/><path d="M1765,293L1675,290L1804,297Z" fill="#62cbff" stroke="#62cbff" stroke-width="1.51"/><path d="M1682,131L1706,93L1676,126Z" fill="#56c4fe" stroke="#56c4fe" stroke-width="1.51"/><path d="M1770,152L1706,93L1682,131Z" fill="#57c6fe" stroke="#57c6fe" stroke-width="1.51"/><path d="M1702,223L1656,230L1680,255Z" fill="#61cbff" stroke="#61cbff" stroke-width="1.51"/><path d="M1706,93L1708,68L1676,58Z" fill="#4fc1fd" stroke="#4fc1fd" stroke-width="1.51"/><path d="M249,190L229,251L261,281Z" fill="#4bc0fd" stroke="#4bc0fd" stroke-width="1.51"/><path d="M208,240L249,190L186,181Z" fill="#4bbffd" stroke="#4bbffd" stroke-width="1.51"/><path d="M249,190L241,115L186,181Z" fill="#45bcfc" stroke="#45bcfc" stroke-width="1.51"/><path d="M1771,237L1702,223L1765,293Z" fill="#62cbff" stroke="#62cbff" stroke-width="1.51"/><path d="M1778,27L1711,5L1708,68Z" fill="#4abffc" stroke="#4abffc" stroke-width="1.51"/><path d="M1760,-39L1711,5L1778,27Z" fill="#44bcfc" stroke="#44bcfc" stroke-width="1.51"/><path d="M1708,68L1711,5L1676,58Z" fill="#4bbffc" stroke="#4bbffc" stroke-width="1.51"/><path d="M229,251L171,264L261,281Z" fill="#4bbffd" stroke="#4bbffd" stroke-width="1.51"/><path d="M186,104L241,115L235,65Z" fill="#38b7fb" stroke="#38b7fb" stroke-width="1.51"/><path d="M179,71L186,104L235,65Z" fill="#34b6fb" stroke="#34b6fb" stroke-width="1.51"/><path d="M186,104L186,181L241,115Z" fill="#3fbafc" stroke="#3fbafc" stroke-width="1.51"/><path d="M150,3L235,65L260,25Z" fill="#28b3fa" stroke="#28b3fa" stroke-width="1.51"/><path d="M186,104L145,149L186,181Z" fill="#41bbfc" stroke="#41bbfc" stroke-width="1.51"/><path d="M236,-41L150,3L260,25Z" fill="#1db0fa" stroke="#1db0fa" stroke-width="1.51"/><path d="M261,-76L189,-48L236,-41Z" fill="#1eb1fa" stroke="#1eb1fa" stroke-width="1.51"/><path d="M140,231L208,240L186,181Z" fill="#4abffd" stroke="#4abffd" stroke-width="1.51"/><path d="M140,231L171,264L208,240Z" fill="#4abffd" stroke="#4abffd" stroke-width="1.51"/><path d="M208,240L171,264L229,251Z" fill="#4bbffd" stroke="#4bbffd" stroke-width="1.51"/><path d="M1778,27L1708,68L1784,82Z" fill="#4ec1fd" stroke="#4ec1fd" stroke-width="1.51"/><path d="M1711,5L1760,-39L1683,-73Z" fill="#44bcfc" stroke="#44bcfc" stroke-width="1.51"/><path d="M1702,223L1770,152L1665,166Z" fill="#5fcafe" stroke="#5fcafe" stroke-width="1.51"/><path d="M1771,237L1770,152L1702,223Z" fill="#62cbff" stroke="#62cbff" stroke-width="1.51"/><path d="M95,116L145,149L186,104Z" fill="#3cb9fb" stroke="#3cb9fb" stroke-width="1.51"/><path d="M189,-48L150,3L236,-41Z" fill="#1db0fa" stroke="#1db0fa" stroke-width="1.51"/><path d="M95,116L186,104L179,71Z" fill="#37b7fb" stroke="#37b7fb" stroke-width="1.51"/><path d="M1784,82L1708,68L1706,93Z" fill="#51c2fd" stroke="#51c2fd" stroke-width="1.51"/><path d="M1760,-39L1764,-86L1683,-73Z" fill="#44bcfc" stroke="#44bcfc" stroke-width="1.51"/><path d="M1683,-73L1764,-86L1607,-98Z" fill="#43bcfc" stroke="#43bcfc" stroke-width="1.51"/><path d="M1795,-33L1764,-86L1760,-39Z" fill="#45bdfc" stroke="#45bdfc" stroke-width="1.51"/><path d="M1770,152L1784,82L1706,93Z" fill="#56c4fd" stroke="#56c4fd" stroke-width="1.51"/><path d="M1765,293L1702,223L1680,255Z" fill="#62cbff" stroke="#62cbff" stroke-width="1.51"/><path d="M1770,152L1814,91L1784,82Z" fill="#56c5fe" stroke="#56c5fe" stroke-width="1.51"/><path d="M150,3L138,35L179,71Z" fill="#27b2fa" stroke="#27b2fa" stroke-width="1.51"/><path d="M150,3L79,5L138,35Z" fill="#20b1f9" stroke="#20b1f9" stroke-width="1.51"/><path d="M189,-48L145,-45L150,3Z" fill="#1bb0fa" stroke="#1bb0fa" stroke-width="1.51"/><path d="M124,-86L145,-45L189,-48Z" fill="#1bb0f9" stroke="#1bb0f9" stroke-width="1.51"/><path d="M1675,290L1765,293L1680,255Z" fill="#61cbff" stroke="#61cbff" stroke-width="1.51"/><path d="M1804,297L1419,286L1348,287Z" fill="#5fcaff" stroke="#5fcaff" stroke-width="1.51"/><path d="M1804,297L1348,287L653,291Z" fill="#5bc8fe" stroke="#5bc8fe" stroke-width="1.51"/><path d="M1804,297L1926,301L1869,298Z" fill="#64ccff" stroke="#64ccff" stroke-width="1.51"/><path d="M145,149L140,231L186,181Z" fill="#48befd" stroke="#48befd" stroke-width="1.51"/><path d="M78,210L140,231L145,149Z" fill="#49befc" stroke="#49befc" stroke-width="1.51"/><path d="M1835,65L1778,27L1784,82Z" fill="#4fc1fd" stroke="#4fc1fd" stroke-width="1.51"/><path d="M1835,65L1795,-33L1778,27Z" fill="#49befd" stroke="#49befd" stroke-width="1.51"/><path d="M1778,27L1795,-33L1760,-39Z" fill="#45bdfc" stroke="#45bdfc" stroke-width="1.51"/><path d="M1771,237L1797,205L1770,152Z" fill="#62ccff" stroke="#62ccff" stroke-width="1.51"/><path d="M1804,297L1797,205L1771,237Z" fill="#63ccff" stroke="#63ccff" stroke-width="1.51"/><path d="M1847,179L1814,91L1770,152Z" fill="#5bc7fe" stroke="#5bc7fe" stroke-width="1.51"/><path d="M138,35L95,116L179,71Z" fill="#31b5fa" stroke="#31b5fa" stroke-width="1.51"/><path d="M145,-45L79,5L150,3Z" fill="#1ab0f9" stroke="#1ab0f9" stroke-width="1.51"/><path d="M261,-76L124,-86L189,-48Z" fill="#1db0fa" stroke="#1db0fa" stroke-width="1.51"/><path d="M310,-88L124,-86L261,-76Z" fill="#1eb1fa" stroke="#1eb1fa" stroke-width="1.51"/><path d="M31,-100L124,-86L310,-88Z" fill="#1bb0fa" stroke="#1bb0fa" stroke-width="1.51"/><path d="M68,31L95,116L138,35Z" fill="#2db4fa" stroke="#2db4fa" stroke-width="1.51"/><path d="M1864,78L1835,65L1814,91Z" fill="#52c3fd" stroke="#52c3fd" stroke-width="1.51"/><path d="M1765,293L1804,297L1771,237Z" fill="#62ccff" stroke="#62ccff" stroke-width="1.51"/><path d="M1804,297L653,291L1926,301Z" fill="#5ec9ff" stroke="#5ec9ff" stroke-width="1.51"/><path d="M1795,-33L1820,-67L1764,-86Z" fill="#45bdfc" stroke="#45bdfc" stroke-width="1.51"/><path d="M1886,-75L1820,-67L1907,-33Z" fill="#47bdfc" stroke="#47bdfc" stroke-width="1.51"/><path d="M1814,91L1835,65L1784,82Z" fill="#52c3fd" stroke="#52c3fd" stroke-width="1.51"/><path d="M1847,179L1770,152L1797,205Z" fill="#60cafe" stroke="#60cafe" stroke-width="1.51"/><path d="M58,-31L79,5L145,-45Z" fill="#18aff9" stroke="#18aff9" stroke-width="1.51"/><path d="M1877,225L1847,179L1797,205Z" fill="#63ccff" stroke="#63ccff" stroke-width="1.51"/><path d="M72,153L78,210L145,149Z" fill="#44bdfc" stroke="#44bdfc" stroke-width="1.51"/><path d="M140,231L68,279L171,264Z" fill="#4abffc" stroke="#4abffc" stroke-width="1.51"/><path d="M72,153L145,149L95,116Z" fill="#3fbafb" stroke="#3fbafb" stroke-width="1.51"/><path d="M32,94L72,153L95,116Z" fill="#3ab8fb" stroke="#3ab8fb" stroke-width="1.51"/><path d="M79,5L68,31L138,35Z" fill="#21b1fa" stroke="#21b1fa" stroke-width="1.51"/><path d="M1847,179L1864,78L1814,91Z" fill="#58c6fe" stroke="#58c6fe" stroke-width="1.51"/><path d="M1907,-33L1820,-67L1795,-33Z" fill="#46bdfc" stroke="#46bdfc" stroke-width="1.51"/><path d="M79,5L58,-31L68,31Z" fill="#18aff9" stroke="#18aff9" stroke-width="1.51"/><path d="M68,31L32,94L95,116Z" fill="#31b5fa" stroke="#31b5fa" stroke-width="1.51"/><path d="M124,-86L58,-31L145,-45Z" fill="#19b0f9" stroke="#19b0f9" stroke-width="1.51"/><path d="M64,284L68,279L12,215Z" fill="#48befc" stroke="#48befc" stroke-width="1.51"/><path d="M78,210L68,279L140,231Z" fill="#49befc" stroke="#49befc" stroke-width="1.51"/><path d="M171,264L64,284L261,281Z" fill="#4abffd" stroke="#4abffd" stroke-width="1.51"/><path d="M261,281L-21,298L346,291Z" fill="#4bbffd" stroke="#4bbffd" stroke-width="1.51"/><path d="M68,279L78,210L12,215Z" fill="#48befc" stroke="#48befc" stroke-width="1.51"/><path d="M68,279L64,284L171,264Z" fill="#49bffc" stroke="#49bffc" stroke-width="1.51"/><path d="M10,168L78,210L72,153Z" fill="#44bcfc" stroke="#44bcfc" stroke-width="1.51"/><path d="M1804,297L1877,225L1797,205Z" fill="#63ccff" stroke="#63ccff" stroke-width="1.51"/><path d="M1847,179L1902,166L1864,78Z" fill="#5cc8fe" stroke="#5cc8fe" stroke-width="1.51"/><path d="M26,61L32,94L68,31Z" fill="#2cb4fa" stroke="#2cb4fa" stroke-width="1.51"/><path d="M1804,297L1869,298L1877,225Z" fill="#63ccff" stroke="#63ccff" stroke-width="1.51"/><path d="M1926,301L653,291L-21,298Z" fill="#55c4fe" stroke="#55c4fe" stroke-width="1.51"/><path d="M5,-18L26,61L68,31Z" fill="#20b1fa" stroke="#20b1fa" stroke-width="1.51"/><path d="M32,94L10,168L72,153Z" fill="#3dbafb" stroke="#3dbafb" stroke-width="1.51"/><path d="M1820,-67L1886,-75L1764,-86Z" fill="#45bdfc" stroke="#45bdfc" stroke-width="1.51"/><path d="M1900,34L1795,-33L1835,65Z" fill="#4abffd" stroke="#4abffd" stroke-width="1.51"/><path d="M1900,34L1835,65L1864,78Z" fill="#50c2fd" stroke="#50c2fd" stroke-width="1.51"/><path d="M1946,119L1900,34L1864,78Z" fill="#53c3fd" stroke="#53c3fd" stroke-width="1.51"/><path d="M1902,166L1847,179L1877,225Z" fill="#62cbff" stroke="#62cbff" stroke-width="1.51"/><path d="M1938,168L1902,166L1949,233Z" fill="#63ccff" stroke="#63ccff" stroke-width="1.51"/><path d="M58,-31L5,-18L68,31Z" fill="#16aff9" stroke="#16aff9" stroke-width="1.51"/><path d="M124,-86L31,-100L58,-31Z" fill="#17aff9" stroke="#17aff9" stroke-width="1.51"/><path d="M394,-101L31,-100L310,-88Z" fill="#1fb1fa" stroke="#1fb1fa" stroke-width="1.51"/><path d="M1960,27L1910,5L1900,34Z" fill="#4bbffd" stroke="#4bbffd" stroke-width="1.51"/><path d="M1900,34L1910,5L1795,-33Z" fill="#47bdfc" stroke="#47bdfc" stroke-width="1.51"/><path d="M1,107L32,94L26,61Z" fill="#31b5fb" stroke="#31b5fb" stroke-width="1.51"/><path d="M1,107L10,168L32,94Z" fill="#39b8fb" stroke="#39b8fb" stroke-width="1.51"/><path d="M1910,5L1907,-33L1795,-33Z" fill="#47bdfc" stroke="#47bdfc" stroke-width="1.51"/><path d="M10,168L12,215L78,210Z" fill="#47befc" stroke="#47befc" stroke-width="1.51"/><path d="M10,168L-22,176L12,215Z" fill="#45bdfc" stroke="#45bdfc" stroke-width="1.51"/><path d="M-18,66L1,107L26,61Z" fill="#2eb5fa" stroke="#2eb5fa" stroke-width="1.51"/><path d="M31,-100L5,-18L58,-31Z" fill="#15aff9" stroke="#15aff9" stroke-width="1.51"/><path d="M5,-18L-18,66L26,61Z" fill="#23b1fa" stroke="#23b1fa" stroke-width="1.51"/><path d="M1,107L-22,176L10,168Z" fill="#3fbafc" stroke="#3fbafc" stroke-width="1.51"/><path d="M1910,5L1959,-50L1907,-33Z" fill="#47befc" stroke="#47befc" stroke-width="1.51"/><path d="M1902,166L1946,119L1864,78Z" fill="#5ac7fe" stroke="#5ac7fe" stroke-width="1.51"/><path d="M1949,233L1902,166L1877,225Z" fill="#64cdff" stroke="#64cdff" stroke-width="1.51"/><path d="M1938,168L1946,119L1902,166Z" fill="#5ec9ff" stroke="#5ec9ff" stroke-width="1.51"/><path d="M-83,144L-22,176L1,107Z" fill="#3db9fb" stroke="#3db9fb" stroke-width="1.51"/><path d="M12,215L-21,298L64,284Z" fill="#48befc" stroke="#48befc" stroke-width="1.51"/><path d="M1869,298L1926,301L1877,225Z" fill="#64cdff" stroke="#64cdff" stroke-width="1.51"/><path d="M2037,101L2020,77L1946,119Z" fill="#57c5fe" stroke="#57c5fe" stroke-width="1.51"/><path d="M-21,298L653,291L436,291Z" fill="#4dc0fd" stroke="#4dc0fd" stroke-width="1.51"/><path d="M1926,301L1949,233L1877,225Z" fill="#64cdff" stroke="#64cdff" stroke-width="1.51"/><path d="M2020,77L1960,27L1946,119Z" fill="#53c3fd" stroke="#53c3fd" stroke-width="1.51"/><path d="M1946,119L1960,27L1900,34Z" fill="#51c2fd" stroke="#51c2fd" stroke-width="1.51"/><path d="M1907,-33L1959,-50L1886,-75Z" fill="#47befc" stroke="#47befc" stroke-width="1.51"/><path d="M-33,231L-21,298L12,215Z" fill="#47befc" stroke="#47befc" stroke-width="1.51"/><path d="M64,284L-21,298L261,281Z" fill="#49bffc" stroke="#49bffc" stroke-width="1.51"/><path d="M346,291L-21,298L436,291Z" fill="#4cc0fd" stroke="#4cc0fd" stroke-width="1.51"/><path d="M-22,176L-33,231L12,215Z" fill="#47befc" stroke="#47befc" stroke-width="1.51"/><path d="M-81,240L-33,231L-22,176Z" fill="#47befc" stroke="#47befc" stroke-width="1.51"/><path d="M1960,27L1959,-50L1910,5Z" fill="#47befc" stroke="#47befc" stroke-width="1.51"/><path d="M-18,66L-83,84L1,107Z" fill="#30b5fb" stroke="#30b5fb" stroke-width="1.51"/><path d="M5,-18L-61,-16L-18,66Z" fill="#18b0f9" stroke="#18b0f9" stroke-width="1.51"/><path d="M31,-100L-43,-92L5,-18Z" fill="#13aff9" stroke="#13aff9" stroke-width="1.51"/><path d="M-43,-92L-61,-16L5,-18Z" fill="#13aff9" stroke="#13aff9" stroke-width="1.51"/><path d="M-61,-16L-72,63L-18,66Z" fill="#23b2fa" stroke="#23b2fa" stroke-width="1.51"/><path d="M-33,231L-81,240L-21,298Z" fill="#47befc" stroke="#47befc" stroke-width="1.51"/><path d="M1949,233L1988,231L1938,168Z" fill="#64cdff" stroke="#64cdff" stroke-width="1.51"/><path d="M2015,-26L1982,-100L1959,-50Z" fill="#47befc" stroke="#47befc" stroke-width="1.51"/><path d="M2016,272L1988,231L1949,233Z" fill="#64cdff" stroke="#64cdff" stroke-width="1.51"/><path d="M1959,-50L1982,-100L1886,-75Z" fill="#47befc" stroke="#47befc" stroke-width="1.51"/><path d="M1886,-75L1982,-100L1764,-86Z" fill="#47bdfc" stroke="#47bdfc" stroke-width="1.51"/><path d="M1764,-86L1982,-100L1607,-98Z" fill="#45bdfc" stroke="#45bdfc" stroke-width="1.51"/><path d="M1607,-98L1982,-100L1016,-100Z" fill="#40bbfc" stroke="#40bbfc" stroke-width="1.51"/><path d="M1016,-100L1982,-100L394,-101Z" fill="#38b8fb" stroke="#38b8fb" stroke-width="1.51"/><path d="M2015,-26L1959,-50L1960,27Z" fill="#47befc" stroke="#47befc" stroke-width="1.51"/><path d="M-99,-65L-83,84L-72,63Z" fill="#1fb1fa" stroke="#1fb1fa" stroke-width="1.51"/><path d="M-72,63L-83,84L-18,66Z" fill="#2db4fa" stroke="#2db4fa" stroke-width="1.51"/><path d="M-83,84L-83,144L1,107Z" fill="#36b7fb" stroke="#36b7fb" stroke-width="1.51"/><path d="M-83,144L-81,240L-22,176Z" fill="#45bdfc" stroke="#45bdfc" stroke-width="1.51"/><path d="M2024,156L1946,119L1938,168Z" fill="#5dc9fe" stroke="#5dc9fe" stroke-width="1.51"/><path d="M2021,28L2015,-26L1960,27Z" fill="#49befc" stroke="#49befc" stroke-width="1.51"/><path d="M2020,77L2021,28L1960,27Z" fill="#4ec1fd" stroke="#4ec1fd" stroke-width="1.51"/><path d="M2020,77L2029,32L2021,28Z" fill="#4fc1fd" stroke="#4fc1fd" stroke-width="1.51"/><path d="M1988,231L2024,156L1938,168Z" fill="#62ccff" stroke="#62ccff" stroke-width="1.51"/><path d="M2037,101L2029,32L2020,77Z" fill="#52c3fd" stroke="#52c3fd" stroke-width="1.51"/><path d="M2021,28L2038,-27L2015,-26Z" fill="#47befc" stroke="#47befc" stroke-width="1.51"/><path d="M1988,231L2035,203L2024,156Z" fill="#64ccff" stroke="#64ccff" stroke-width="1.51"/><path d="M1926,301L2016,272L1949,233Z" fill="#64cdff" stroke="#64cdff" stroke-width="1.51"/><path d="M-83,84L-99,-65L-83,144Z" fill="#28b3fa" stroke="#28b3fa" stroke-width="1.51"/><path d="M-83,144L-96,277L-81,240Z" fill="#47befc" stroke="#47befc" stroke-width="1.51"/><path d="M-61,-16L-99,-65L-72,63Z" fill="#13aff9" stroke="#13aff9" stroke-width="1.51"/><path d="M-43,-92L-99,-65L-61,-16Z" fill="#13aff9" stroke="#13aff9" stroke-width="1.51"/><path d="M-99,-65L-96,277L-83,144Z" fill="#38b8fb" stroke="#38b8fb" stroke-width="1.51"/><path d="M-81,240L-96,277L-21,298Z" fill="#47befc" stroke="#47befc" stroke-width="1.51"/><path d="M2024,156L2037,101L1946,119Z" fill="#5ac7fe" stroke="#5ac7fe" stroke-width="1.51"/><path d="M2072,184L2037,101L2024,156Z" fill="#5dc9fe" stroke="#5dc9fe" stroke-width="1.51"/><path d="M2016,272L2035,203L1988,231Z" fill="#64cdff" stroke="#64cdff" stroke-width="1.51"/><path d="M2057,-52L2038,-27L2029,32Z" fill="#47befc" stroke="#47befc" stroke-width="1.51"/><path d="M2029,32L2038,-27L2021,28Z" fill="#49bffc" stroke="#49bffc" stroke-width="1.51"/><path d="M2015,-26L2057,-52L1982,-100Z" fill="#47befc" stroke="#47befc" stroke-width="1.51"/><path d="M2037,101L2057,-52L2029,32Z" fill="#4cc0fd" stroke="#4cc0fd" stroke-width="1.51"/><path d="M2038,-27L2057,-52L2015,-26Z" fill="#47befc" stroke="#47befc" stroke-width="1.51"/><path d="M2072,184L2057,-52L2037,101Z" fill="#53c4fd" stroke="#53c4fd" stroke-width="1.51"/><path d="M2035,203L2072,184L2024,156Z" fill="#62cbff" stroke="#62cbff" stroke-width="1.51"/><path d="M2074,277L2072,184L2035,203Z" fill="#64cdff" stroke="#64cdff" stroke-width="1.51"/><path d="M2016,272L2074,277L2035,203Z" fill="#64cdff" stroke="#64cdff" stroke-width="1.51"/><path d="M1926,301L2074,277L2016,272Z" fill="#64cdff" stroke="#64cdff" stroke-width="1.51"/></svg>