<svg id="svg8" xmlns="http://www.w3.org/2000/svg" viewBox="0 0 5277.94 431.11"><defs><style>.cls-1,.cls-2{fill:#f9f9f9;}.cls-1,.cls-3{stroke:#f9f9f9;}.cls-1{stroke-width:4.93px;}.cls-3{fill:none;stroke-linecap:round;stroke-width:4.95px;}.cls-4{fill:#f8f9f9;}</style></defs><title>logo</title><g id="layer1"><circle id="circle866" class="cls-1" cx="975.51" cy="202.34" r="42.51"/><path class="cls-2" d="M968.8,40.5H740.14l-5.32,1H140.09c-5.59,0-13.49,13.69-22.07,33h81.19a28.33,28.33,0,0,1,10.58,1.93,21.55,21.55,0,0,1,7.84,5.31A18.52,18.52,0,0,1,222,89.62a20.63,20.63,0,0,1,.17,9.66L185.23,274a26.85,26.85,0,0,1-4.26,9.66,33.74,33.74,0,0,1-7.69,7.87,33.79,33.79,0,0,1-21.82,7H49.4c-8.28,9.18-9.67,60.44,8.85,97,29.89,58.94,55.6,59,61,62H652.42l175.3.74c23.14,0,41.77-16.67,41.77-37.37s-18.63-37.37-41.77-37.37H737.29c-31.89,0-57.56-26-57.56-54.55s25.67-54.45,57.56-54.45H872.76c26.31,0,47.5-19,47.5-42.5s-21.19-42.5-47.5-42.5H771.07c-12.36,0-22.31-12.74-22.31-23.79s10-23.21,22.31-23.21H968.8c31.58,0,57-22.74,57-51S1000.38,40.5,968.8,40.5ZM652.2,101.18,627.47,274.82c-2,14.12-15.33,25.68-29.6,25.68H326.68c-14.27,0-24.29-11.56-22.28-25.68l24.73-173.64c2-14.12,15.33-25.68,29.6-25.68H629.92C644.18,75.5,654.21,87.06,652.2,101.18Z" transform="translate(-41.1 -29.61)"/><path class="cls-3" d="M968.8,40.5H740.14l-5.32,1H140.09c-5.59,0-13.49,13.69-22.07,33h81.19a28.33,28.33,0,0,1,10.58,1.93,21.55,21.55,0,0,1,7.84,5.31A18.52,18.52,0,0,1,222,89.62a20.63,20.63,0,0,1,.17,9.66L185.23,274a26.85,26.85,0,0,1-4.26,9.66,33.74,33.74,0,0,1-7.69,7.87,33.79,33.79,0,0,1-21.82,7H49.4c-8.28,9.18-9.67,60.44,8.85,97,29.89,58.94,55.6,59,61,62H652.42l175.3.74c23.14,0,41.77-16.67,41.77-37.37s-18.63-37.37-41.77-37.37H737.29c-31.89,0-57.56-26-57.56-54.55s25.67-54.45,57.56-54.45H872.76c26.31,0,47.5-19,47.5-42.5s-21.19-42.5-47.5-42.5H771.07c-12.36,0-22.31-12.74-22.31-23.79s10-23.21,22.31-23.21H968.8c31.58,0,57-22.74,57-51S1000.38,40.5,968.8,40.5ZM652.2,101.18,627.47,274.82c-2,14.12-15.33,25.68-29.6,25.68H326.68c-14.27,0-24.29-11.56-22.28-25.68l24.73-173.64c2-14.12,15.33-25.68,29.6-25.68H629.92C644.18,75.5,654.21,87.06,652.2,101.18Z" transform="translate(-41.1 -29.61)"/></g><path class="cls-4" d="M1326.05,431l52.19-371.22q47.87-4.85,131.27-4.84,69.93,0,96.3,27.71T1623,176.53q-10.23,71.55-38.74,94.42t-97.92,22.86a518,518,0,0,1-73.16-4.84L1393.3,431ZM1420,239h63.15q38.33,0,52.9-13.49t20.51-54q5.38-36.69-5.4-49.12T1507.41,110h-69.09Z" transform="translate(-41.1 -29.61)"/><path class="cls-4" d="M1858.62,160l-15,61h-17.21q-12.92,0-28.54,6.19a235.26,235.26,0,0,0-28.53,13.46q-12.93,7.28-39.31,24.5L1707.43,431h-65l37-263h50.08l-1.61,55.29C1770.24,181,1843.6,160,1843.6,160Z" transform="translate(-41.1 -29.61)"/><path class="cls-4" d="M2014.14,159.8q69.93,0,97.11,33.09t16.41,108.94q-10.23,74.25-43.31,105.18T1982.4,438q-69.4,0-97.38-32.82T1867.26,297q10.76-74.78,43.58-106T2014.14,159.8ZM2013.6,212q-37.12,0-53.8,18.29t-24.21,71.55q-7.54,49.51,2.15,66.71t45.19,17.22q37.13,0,53.8-18.56T2060.41,297q7-50.57-2.42-67.79T2013.6,212ZM2121.74,78.56l-121,59.72-18.29-29,111.36-79.62Z" transform="translate(-41.1 -29.61)"/><path class="cls-4" d="M2347.63,295.23,2411.75,431h-64.57l-50.59-113H2288l-82.86,113H2134L2237,294.69,2178.22,167h64.22L2287,270h11.26l75.64-103H2443Z" transform="translate(-41.1 -29.61)"/><path class="cls-4" d="M2522.57,431h-65.2l37.18-264h64.65Zm4.32-378h29.48q9.65,0,14.21,5.36t3.48,14.47l-3.75,29.48Q2567.09,120,2549.94,120h-29.48q-20.37,0-17.69-20.37l4.29-28.94Q2508.67,53,2526.89,53Z" transform="translate(-41.1 -29.61)"/><path class="cls-4" d="M2683.22,167l-1.08,52.26q58.18-59.81,110.45-59.8,29.63,0,45.8,14.54t17.24,40.41q29.09-29.08,53.88-42a109.29,109.29,0,0,1,51.18-12.93q35,0,51.45,19.93t11.05,54.42L2995.71,431h-64.65l24.78-179.95q3.24-20.48-2.42-28.29T2933.21,215q-16.71,0-33.67,10.51t-49.3,40.67L2827.07,431h-62.49l24.78-179.95q2.68-19.4-2.16-27.75T2766.73,215q-17.25,0-34.21,10.24T2683.76,264l-23.17,167h-64.65l37.17-264Z" transform="translate(-41.1 -29.61)"/><path class="cls-4" d="M3219.25,159.8q69.93,0,97.1,33.09t16.41,108.94q-10.22,74.25-43.31,105.18T3187.5,438q-69.4,0-97.37-32.82T3072.37,297q10.76-74.78,43.58-106T3219.25,159.8Zm-.54,52.19q-37.12,0-53.8,18.29t-24.21,71.55q-7.54,49.51,2.15,66.71T3188,385.76q37.13,0,53.8-18.56T3265.51,297q7-50.57-2.42-67.79T3218.71,212Z" transform="translate(-41.1 -29.61)"/><path class="cls-4" d="M3793.29,118H3678l-44,313h-67.11l44-313H3496.25l8.13-58h297Z" transform="translate(-41.1 -29.61)"/><path class="cls-4" d="M3974,160l-15,61h-17.2q-12.93,0-28.54,6.19a234.71,234.71,0,0,0-28.54,13.46q-12.93,7.28-39.31,24.5L3822.84,431h-65l37-263h50.07l-1.61,55.29C3885.65,181,3959,160,3959,160Z" transform="translate(-41.1 -29.61)"/><path class="cls-4" d="M4216.7,431h-51.65l1.62-45.73q-44.67,51.64-110.29,52.19-48.42.53-65.91-31.75t-6.72-110.82q6.45-44.65,18-72.36t30.4-41.16q18.82-13.44,37.93-17.49t49.76-4a563.8,563.8,0,0,1,132.89,15.6Zm-35-218-47.88-.54q-24.75,0-37.66,2.42a44.78,44.78,0,0,0-22.86,11.84q-10,9.42-14.53,25.55t-8.88,46.27q-7.53,55.43-3,69.94T4073.59,383q22.6,0,43.58-12.64t47.88-39.55Z" transform="translate(-41.1 -29.61)"/><path class="cls-4" d="M4377,167l-1.62,54.42q66.81-61.95,122.85-62,33.39,0,50.91,19.39t12.66,55l-28,197.19h-65.2l24.79-178.87Q4496,230,4492,222.22t-18-7.27q-20.48,0-42,11.85t-56,38.8L4353.25,431h-65.2l37.18-264Z" transform="translate(-41.1 -29.61)"/><path class="cls-4" d="M4812.2,167h68.58q-11.85,65.75-41.49,144.39-21,55-41.48,83-12.93,20-27.21,28.29T4731.54,431H4678.2q-17.25,0-19.93-16.7L4610.85,167H4680l30.64,215h7.53q10.74,0,17.46-3.76t14.25-15.05q14.51-22,32.78-74.18Q4800.38,239.57,4812.2,167Z" transform="translate(-41.1 -29.61)"/><path class="cls-4" d="M4967.22,431H4902l37.18-264h65.19ZM5077.49,78.56l-121.05,59.72-17.76-29,110.83-79.62Z" transform="translate(-41.1 -29.61)"/><path class="cls-4" d="M5283,431h-51.65l1.61-45.73q-44.66,51.64-110.28,52.19-48.42.53-65.91-31.75T5050,294.89q6.47-44.65,18-72.36t30.39-41.16q18.84-13.44,37.93-17.49t49.77-4A563.78,563.78,0,0,1,5319,175.45Zm-35-218-47.88-.54q-24.75,0-37.66,2.42a44.81,44.81,0,0,0-22.87,11.84q-10,9.42-14.52,25.55t-8.88,46.27q-7.55,55.43-3,69.94T5139.89,383q22.6,0,43.58-12.64t47.88-39.55Z" transform="translate(-41.1 -29.61)"/></svg>