<svg id="svg8" xmlns="http://www.w3.org/2000/svg" viewBox="0 0 5157.66 425.62"><defs><style>.cls-1,.cls-2{fill:#f9f9f9;}.cls-1,.cls-3{stroke:#f9f9f9;}.cls-1{stroke-width:4.93px;}.cls-3{fill:none;stroke-linecap:round;stroke-width:4.95px;}</style></defs><title>logo</title><g id="layer1"><circle id="circle866" class="cls-1" cx="975.51" cy="196.85" r="42.51"/><path class="cls-2" d="M968.8,40.5H740.14l-5.32,1H140.09c-5.59,0-13.49,13.69-22.07,33h81.19a28.33,28.33,0,0,1,10.58,1.93,21.55,21.55,0,0,1,7.84,5.31A18.52,18.52,0,0,1,222,89.62a20.63,20.63,0,0,1,.17,9.66L185.23,274a26.85,26.85,0,0,1-4.26,9.66,33.74,33.74,0,0,1-7.69,7.87,33.79,33.79,0,0,1-21.82,7H49.4c-8.28,9.18-9.67,60.44,8.85,97,29.89,58.94,55.6,59,61,62H652.42l175.3.74c23.14,0,41.77-16.67,41.77-37.37s-18.63-37.37-41.77-37.37H737.29c-31.89,0-57.56-26-57.56-54.55s25.67-54.45,57.56-54.45H872.76c26.31,0,47.5-19,47.5-42.5s-21.19-42.5-47.5-42.5H771.07c-12.36,0-22.31-12.74-22.31-23.79s10-23.21,22.31-23.21H968.8c31.58,0,57-22.74,57-51S1000.38,40.5,968.8,40.5ZM652.2,101.18,627.47,274.82c-2,14.12-15.33,25.68-29.6,25.68H326.68c-14.27,0-24.29-11.56-22.28-25.68l24.73-173.64c2-14.12,15.33-25.68,29.6-25.68H629.92C644.18,75.5,654.21,87.06,652.2,101.18Z" transform="translate(-41.1 -35.1)"/><path class="cls-3" d="M968.8,40.5H740.14l-5.32,1H140.09c-5.59,0-13.49,13.69-22.07,33h81.19a28.33,28.33,0,0,1,10.58,1.93,21.55,21.55,0,0,1,7.84,5.31A18.52,18.52,0,0,1,222,89.62a20.63,20.63,0,0,1,.17,9.66L185.23,274a26.85,26.85,0,0,1-4.26,9.66,33.74,33.74,0,0,1-7.69,7.87,33.79,33.79,0,0,1-21.82,7H49.4c-8.28,9.18-9.67,60.44,8.85,97,29.89,58.94,55.6,59,61,62H652.42l175.3.74c23.14,0,41.77-16.67,41.77-37.37s-18.63-37.37-41.77-37.37H737.29c-31.89,0-57.56-26-57.56-54.55s25.67-54.45,57.56-54.45H872.76c26.31,0,47.5-19,47.5-42.5s-21.19-42.5-47.5-42.5H771.07c-12.36,0-22.31-12.74-22.31-23.79s10-23.21,22.31-23.21H968.8c31.58,0,57-22.74,57-51S1000.38,40.5,968.8,40.5ZM652.2,101.18,627.47,274.82c-2,14.12-15.33,25.68-29.6,25.68H326.68c-14.27,0-24.29-11.56-22.28-25.68l24.73-173.64c2-14.12,15.33-25.68,29.6-25.68H629.92C644.18,75.5,654.21,87.06,652.2,101.18Z" transform="translate(-41.1 -35.1)"/></g><path class="cls-2" d="M1497.75,81.94q23.45,15.51,37.72,41.7a121.33,121.33,0,0,1,0,114.18q-14.28,26.46-37.72,42t-49.44,15.51h-88.68v96.13q0,13.72-8.15,22.38t-21.41,8.64q-12.75,0-20.9-8.9T1301,391.42v-294a30,30,0,0,1,8.92-22.12q8.91-8.89,22.17-8.9h116.2Q1474.31,66.43,1497.75,81.94ZM1465.08,230a59.56,59.56,0,0,0,15.16-21,65.86,65.86,0,0,0,0-54.05,57.26,57.26,0,0,0-15.16-20.72q-9.36-7.81-18.94-7.83h-87.9V238.08h87.9Q1455.73,238.08,1465.08,230Z" transform="translate(-41.1 -35.1)"/><path class="cls-2" d="M1769.15,153.52q10.49,8.7,10.49,20.47,0,15.87-8.18,23.79a27,27,0,0,1-19.45,7.93,51,51,0,0,1-17.4-3.58q-1.53-.51-6.9-2a41.93,41.93,0,0,0-11.52-1.53q-13.31,0-25.58,8.19t-20.21,24.81q-8,16.63-7.94,39.66V392.48q0,13.32-8.69,22.26t-22,9q-13.3,0-22-9t-8.7-22.26V181.15q0-13.31,8.7-22.26t22-8.95q13.31,0,22,8.95t8.69,22.26v6.65a77.62,77.62,0,0,1,33.78-32,103.82,103.82,0,0,1,47.07-11Q1758.67,144.82,1769.15,153.52Z" transform="translate(-41.1 -35.1)"/><path class="cls-2" d="M2065,360a129.23,129.23,0,0,1-50,50q-31.76,17.79-69.85,17.78-38.61,0-70.1-17.78a129.59,129.59,0,0,1-49.78-50q-18.29-32.25-18.29-72.9t18.29-72.89A131.5,131.5,0,0,1,1875,163.87q31.5-18,70.1-18,38.1,0,69.85,18a131.12,131.12,0,0,1,50,50.29q18.28,32.26,18.28,72.89T2065,360Zm-53.09-117.34q-10.41-19.56-27.94-30.23a76.1,76.1,0,0,0-77.72,0q-17.52,10.67-27.94,30.23t-10.41,44.44q0,24.9,10.41,44.2a77,77,0,0,0,27.94,30,76.16,76.16,0,0,0,77.72,0,77,77,0,0,0,27.94-30q10.41-19.31,10.41-44.2T2011.91,242.61Zm-75.18-113.54a13.44,13.44,0,0,1-5.33-12.19,18.86,18.86,0,0,1,3-9.65l29.47-51.81a48.06,48.06,0,0,1,12.19-14.74,24.89,24.89,0,0,1,15.75-5.58q13.71,0,20.57,7.11t6.35,18.29q-1,11.69-9.65,21.84L1970.51,125q-8.13,8.64-22.86,8.63Q1942.57,133.64,1936.73,129.07Z" transform="translate(-41.1 -35.1)"/><path class="cls-2" d="M2340.83,392.71q0,12.71-9.66,21.84t-21.33,9.15q-14.74,0-24.89-13.21l-61-75.69-59.43,75.69a32.15,32.15,0,0,1-10.92,9.4,28.71,28.71,0,0,1-13.46,3.3q-10.68,0-20.32-8.13t-9.66-18.79q0-10.15,7.62-19.3l70.61-86.36-73.15-90.93a28.24,28.24,0,0,1-6.6-18.29,28.61,28.61,0,0,1,9.4-21.59,30.52,30.52,0,0,1,21.59-8.88q14.73,0,24.89,12.69L2227,241.33l57.91-76.7q9.65-13.71,24.38-13.71a28,28,0,0,1,20.58,8.38q8.37,8.37,8.38,19a30.3,30.3,0,0,1-7.12,19.81l-70.1,85.34,73.15,90.92A28.3,28.3,0,0,1,2340.83,392.71Z" transform="translate(-41.1 -35.1)"/><path class="cls-2" d="M2384.11,112.38q-7.14-5.59-7.13-19.87V82.83q0-14.25,7.64-19.87t24.46-5.6q17.82,0,25,5.6t7.13,19.87v9.68q0,14.79-7.38,20.13T2408.57,118Q2391.25,118,2384.11,112.38Zm47,302.34q-8.7,9-22,9t-22-9q-8.7-8.94-8.69-22.25V181.13q0-13.29,8.69-22.26t22-9q13.29,0,22,9t8.7,22.26V392.47Q2439.78,405.78,2431.08,414.72Z" transform="translate(-41.1 -35.1)"/><path class="cls-2" d="M2885.16,176.52q19.34,30.79,19.33,85.23V391.58q0,13.32-8.7,22.26t-22,9q-13.3,0-22-9t-8.7-22.26V261.8q0-28.06-11-44.15t-38.54-16.08q-28.59,0-44.66,17.1t-16.08,43.13V391.94q0,13-8.5,21.75t-21.5,8.75q-13,0-21.5-8.75t-8.51-21.75V261.8q0-28.06-11-44.15t-38.53-16.08q-28.6,0-44.67,17.1t-16.07,43.13V392.47q0,13.3-8.7,22.25t-22,9q-13.3,0-22-9t-8.7-22.25V181.13q0-13.29,8.7-22.26t22-9q13.3,0,22,9t8.7,22.26V190a124.11,124.11,0,0,1,34.85-31.29,88.08,88.08,0,0,1,47.06-13q64.11,0,81.92,56,11.7-21.37,35.36-38.67t53.68-17.3Q2865.83,145.74,2885.16,176.52Z" transform="translate(-41.1 -35.1)"/><path class="cls-2" d="M3212.51,360a129.16,129.16,0,0,1-50,50q-31.75,17.79-69.85,17.78-38.61,0-70.1-17.78a129.59,129.59,0,0,1-49.78-50q-18.28-32.25-18.28-72.9t18.28-72.89a131.5,131.5,0,0,1,49.78-50.29q31.5-18,70.1-18,38.1,0,69.85,18a131.05,131.05,0,0,1,50,50.29q18.28,32.26,18.28,72.89T3212.51,360Zm-53.09-117.34q-10.41-19.56-27.94-30.23a76.1,76.1,0,0,0-77.72,0q-17.52,10.67-27.93,30.23t-10.42,44.44q0,24.9,10.42,44.2a76.94,76.94,0,0,0,27.93,30,76.16,76.16,0,0,0,77.72,0,77,77,0,0,0,27.94-30q10.41-19.31,10.42-44.2T3159.42,242.61Z" transform="translate(-41.1 -35.1)"/><path class="cls-2" d="M3684.14,74.58q8.58,8.16,8.58,21.41t-8.58,21.15q-8.58,7.9-22.2,7.9h-79.21V392.11a29,29,0,0,1-9.59,22.17q-9.58,8.93-23.71,8.92t-23.21-8.92a29.78,29.78,0,0,1-9.08-22.17V125h-79.22q-13.62,0-22.2-8.16t-8.58-21.4q0-12.74,8.83-20.9t22-8.15h224Q3675.56,66.43,3684.14,74.58Z" transform="translate(-41.1 -35.1)"/><path class="cls-2" d="M3879.21,153.52q10.48,8.7,10.49,20.47,0,15.87-8.19,23.79a27,27,0,0,1-19.44,7.93,51,51,0,0,1-17.4-3.58c-1-.34-3.33-1-6.91-2a41.86,41.86,0,0,0-11.51-1.53q-13.32,0-25.59,8.19t-20.21,24.81q-7.93,16.63-7.93,39.66V392.48q0,13.32-8.7,22.26t-22,9q-13.32,0-22-9t-8.69-22.26V181.15q0-13.31,8.69-22.26t22-8.95q13.29,0,22,8.95t8.7,22.26v6.65a77.54,77.54,0,0,1,33.77-32,103.89,103.89,0,0,1,47.08-11Q3868.72,144.82,3879.21,153.52Z" transform="translate(-41.1 -35.1)"/><path class="cls-2" d="M4167.13,153.5q8.7,8.72,8.7,22.52V392.46q0,13.32-8.7,22.26t-22,9q-13.32,0-21.75-8.7t-8.95-22q-12.8,14.83-34.54,25.32a104.19,104.19,0,0,1-45.8,10.49q-35.31,0-64-18.16t-45.28-50.4q-16.63-32.24-16.63-73.18t16.37-73.42Q3941,181.14,3969.36,163a114,114,0,0,1,62.69-18.16,118.71,118.71,0,0,1,46,8.95q21.49,9,36.33,22.77V176q0-13.31,8.7-22.26t22-8.95Q4158.43,144.81,4167.13,153.5Zm-70.24,194.26q20.82-24.12,20.83-60.71t-20.83-61q-20.84-24.39-53.85-24.39-32.51,0-53.33,24.39t-20.83,61q0,36.58,20.57,60.71T4043,371.88Q4076.06,371.88,4096.89,347.76Z" transform="translate(-41.1 -35.1)"/><path class="cls-2" d="M4458.84,176.56q19.83,30.75,19.82,85.12v129.9q0,13.32-8.7,22.26t-22,9q-13.3,0-22-9t-8.7-22.26v-130q0-27.84-11.65-43.8t-40-15.95q-29.37,0-46.08,17t-16.71,42.79V392.47q0,13.3-8.69,22.25t-22,9q-13.3,0-22-9t-8.7-22.25V181.13q0-13.29,8.7-22.26t22-9q13.3,0,22,9t8.69,22.26v9.4q13.73-18.3,35.83-31.51a93,93,0,0,1,48.54-13.21Q4439,145.81,4458.84,176.56Z" transform="translate(-41.1 -35.1)"/><path class="cls-2" d="M4771.48,159.3a26.15,26.15,0,0,1,8.12,19.55q0,6.1-4.06,15.24l-95,209.29a31.64,31.64,0,0,1-10.42,13.72,28.22,28.22,0,0,1-15.49,5.58l-4.57.51a26.72,26.72,0,0,1-16-5.33,34.81,34.81,0,0,1-11.43-14.48l-94.49-209.29a40.21,40.21,0,0,1-3.55-16.25q0-10.16,8.63-18.54a29.44,29.44,0,0,1,21.34-8.38,33,33,0,0,1,17.78,5.07,31.4,31.4,0,0,1,12.19,14.23l70.1,160.52,69.59-160q4.07-9.64,11.18-14.74a24,24,0,0,1,15.75-4.57Q4763.34,151.42,4771.48,159.3Z" transform="translate(-41.1 -35.1)"/><path class="cls-2" d="M4877.46,414.72q-8.7,9-22,9t-22-9q-8.7-8.94-8.69-22.25V181.13q0-13.29,8.69-22.26t22-9q13.3,0,22,9t8.7,22.26V392.47Q4886.16,405.78,4877.46,414.72ZM4846.4,129.07a13.44,13.44,0,0,1-5.33-12.19,18.86,18.86,0,0,1,3-9.65l29.47-51.81a48.06,48.06,0,0,1,12.19-14.74,24.89,24.89,0,0,1,15.75-5.58q13.71,0,20.57,7.11t6.35,18.29q-1,11.69-9.65,21.84L4880.18,125q-8.13,8.64-22.86,8.63Q4852.24,133.64,4846.4,129.07Z" transform="translate(-41.1 -35.1)"/><path class="cls-2" d="M5190.06,153.5q8.7,8.72,8.7,22.52V392.46q0,13.32-8.7,22.26t-22,9q-13.31,0-21.75-8.7t-9-22q-12.79,14.83-34.54,25.32a104.19,104.19,0,0,1-45.8,10.49q-35.3,0-64-18.16t-45.28-50.4q-16.64-32.24-16.63-73.18t16.37-73.42q16.36-32.49,44.77-50.66A114,114,0,0,1,5055,144.81a118.71,118.71,0,0,1,46.05,8.95q21.49,9,36.33,22.77V176q0-13.31,8.7-22.26t22-8.95Q5181.37,144.81,5190.06,153.5Zm-71.13,194.26q20.82-24.12,20.82-60.71t-20.82-61q-20.84-24.39-53.85-24.39-32.51,0-53.34,24.39t-20.82,61q0,36.58,20.57,60.71t53.59,24.12Q5098.1,371.88,5118.93,347.76Z" transform="translate(-41.1 -35.1)"/></svg>