<?xml version="1.0" standalone="no"?>
<!DOCTYPE svg PUBLIC "-//W3C//DTD SVG 20010904//EN"
 "http://www.w3.org/TR/2001/REC-SVG-20010904/DTD/svg10.dtd">
<svg version="1.0" xmlns="http://www.w3.org/2000/svg"
 width="400.000000pt" height="400.000000pt" viewBox="0 0 400.000000 400.000000"
 preserveAspectRatio="xMidYMid meet">
<metadata>
Created by potrace 1.11, written by Peter Selinger 2001-2013
</metadata>
<g transform="translate(0.000000,400.000000) scale(0.100000,-0.100000)"
fill="#000000" stroke="none">
<path d="M783 2568 c-42 -72 -47 -68 101 -68 116 0 135 -2 149 -18 10 -10 17
-26 17 -35 0 -26 -100 -498 -112 -530 -19 -49 -50 -57 -227 -57 l-161 0 -6
-26 c-4 -14 -4 -61 -2 -104 4 -66 11 -92 41 -152 20 -40 50 -89 66 -109 62
-74 -19 -69 1141 -69 1146 0 1082 -4 1116 61 31 61 -4 128 -77 149 -19 6 -104
10 -190 10 -145 0 -158 2 -189 23 -54 36 -75 72 -75 127 0 73 51 132 131 150
21 5 136 10 254 10 195 0 218 2 244 19 72 48 76 152 7 198 -22 15 -56 19 -214
23 -183 5 -189 6 -208 29 -24 29 -24 53 0 82 l19 24 329 5 c373 6 375 6 414
88 26 52 20 98 -18 142 -53 64 36 60 -1307 60 l-1224 0 -19 -32z m1487 -88
c11 -11 20 -26 20 -34 0 -18 -68 -495 -75 -524 -3 -12 -14 -31 -25 -42 -19
-19 -35 -20 -443 -20 -407 0 -425 1 -441 19 -17 19 -16 32 20 293 37 258 40
274 66 301 l26 27 416 0 c403 0 417 -1 436 -20z"/>
<path d="M3261 2144 c-37 -31 -53 -81 -40 -128 23 -84 135 -116 200 -58 27 24
33 37 37 85 4 54 3 58 -31 92 -31 31 -41 35 -85 35 -40 0 -57 -6 -81 -26z"/>
</g>
</svg>
