<?xml version="1.0" standalone="no"?>
<!DOCTYPE svg PUBLIC "-//W3C//DTD SVG 20010904//EN"
 "http://www.w3.org/TR/2001/REC-SVG-20010904/DTD/svg10.dtd">
<svg version="1.0" xmlns="http://www.w3.org/2000/svg"
 width="700.000000pt" height="700.000000pt" viewBox="0 0 700.000000 700.000000"
 preserveAspectRatio="xMidYMid meet">
<metadata>
Created by potrace 1.11, written by Peter Selinger 2001-2013
</metadata>
<g transform="translate(0.000000,700.000000) scale(0.100000,-0.100000)"
fill="#000000" stroke="none">
<path d="M3187 6705 c-1 -2 -93 -5 -203 -9 -111 -4 -211 -8 -223 -11 -11 -2
-60 -7 -109 -10 -48 -4 -94 -8 -103 -10 -9 -2 -38 -6 -65 -9 -506 -64 -873
-212 -1079 -438 -133 -145 -210 -329 -231 -548 -9 -97 -11 -3149 -2 -3255 4
-44 9 -91 12 -105 3 -14 8 -34 10 -45 9 -43 49 -153 77 -209 163 -327 498
-563 842 -592 l73 -7 -218 -218 -218 -217 0 -74 0 -73 1750 0 1750 0 0 73 0
74 -217 216 c-119 120 -210 218 -202 219 185 21 290 48 402 104 259 130 475
377 551 632 50 166 49 113 49 1817 0 1563 -1 1657 -22 1768 -60 310 -248 540
-558 683 -83 39 -287 112 -343 123 -14 3 -36 8 -50 11 -96 23 -251 50 -340 60
-30 3 -66 8 -80 10 -14 3 -54 7 -90 10 -36 3 -85 7 -110 10 -122 11 -349 18
-683 20 -202 1 -368 1 -370 0z m2026 -1165 l37 0 0 -728 0 -728 -1750 0 -1750
0 0 728 0 727 48 3 c34 2 3082 1 3415 -2z m-1542 -2362 c88 -33 145 -67 214
-130 178 -162 241 -395 164 -605 -21 -58 -87 -164 -133 -215 -45 -51 -147
-117 -229 -149 -75 -30 -91 -32 -192 -32 -95 0 -120 4 -185 28 -211 78 -354
250 -386 466 -47 319 174 614 496 662 66 10 188 -2 251 -25z"/>
</g>
</svg>
